<svg xmlns="http://www.w3.org/2000/svg" viewBox="0 0 300 144.89"><defs><style>.cls-1{fill:#c39658;}.cls-2{fill:#f7e8d4;}</style></defs><g id="Layer_2" data-name="Layer 2"><g id="Layer_1-2" data-name="Layer 1"><path class="cls-1" d="M143.29,129.28v15.16h-4.06V143a6,6,0,0,0-5.42-6V135.7a2,2,0,1,0-1.22,0V137a6,6,0,0,0-5.43,6v1.45h-3.32V143a6,6,0,0,0-5.45-6V135.7a2,2,0,1,0-1.2,0V137a6,6,0,0,0-5.44,6v1.45h-3.33V143a6,6,0,0,0-5.44-6V135.7a2,2,0,0,0-.61-3.84,2,2,0,0,0-.61,3.84V137a6,6,0,0,0-5.43,6v1.45H93V143a6,6,0,0,0-5.45-6V135.7a2,2,0,1,0-1.21,0V137a6,6,0,0,0-5.43,6v1.45H77.57V143a6,6,0,0,0-5.42-6V135.7a2,2,0,1,0-1.22,0V137a6,6,0,0,0-5.43,6v1.45H62.18V143a6,6,0,0,0-5.45-6V135.7a2,2,0,1,0-1.21,0V137a6,6,0,0,0-5.43,6v1.45H46.76V143a6,6,0,0,0-5.44-6V135.7a2,2,0,0,0-.61-3.84,2,2,0,0,0-.61,3.84V137a6,6,0,0,0-5.43,6v1.45H31.35V143a6,6,0,0,0-5.45-6V135.7a2,2,0,1,0-1.21,0V137a6,6,0,0,0-5.45,6v1.45H15.91V143a6,6,0,0,0-5.42-6V135.7a2,2,0,1,0-1.22,0V137a6,6,0,0,0-5.43,6v1.45H0V129.28Z"/><rect class="cls-1" y="123.16" width="143.29" height="2.94"/><path class="cls-2" d="M27.11,71a15.9,15.9,0,0,0-8.45-3.46,26.91,26.91,0,0,0-2.92-.21l-2,0H.4v41.23H13.74l2,0c1,0,2-.09,2.92-.2a15.91,15.91,0,0,0,8.45-3.47,18.16,18.16,0,0,0,5.27-7.27,26.77,26.77,0,0,0,0-19.3A18.16,18.16,0,0,0,27.11,71Zm-2,22.65a12.52,12.52,0,0,1-2.52,4.75,7.57,7.57,0,0,1-4.39,2.52,15.06,15.06,0,0,1-2.38.24c-.88,0-1.57,0-2.09,0H8.3V74.63h5.44l2.09,0a12.93,12.93,0,0,1,2.38.26,7.67,7.67,0,0,1,4.32,2.44A12.17,12.17,0,0,1,25.09,82a19.84,19.84,0,0,1,.85,5.87A20,20,0,0,1,25.12,93.64Z"/><polygon class="cls-2" points="65.13 67.3 54.65 101.2 44.34 67.3 36.33 67.3 48.93 108.53 60.55 108.53 73.15 67.3 65.13 67.3"/><path class="cls-2" d="M82.34,67.3l-12.6,41.23h8l2.61-8.59H95.9l2.65,8.59h8L94,67.3Zm.24,25.36,5.5-18.07,5.57,18.07Z"/><path class="cls-2" d="M140.58,89.79a15.06,15.06,0,0,0,2.58-8.86A16.85,16.85,0,0,0,142,74.64,10.93,10.93,0,0,0,138.56,70a12.71,12.71,0,0,0-6.06-2.43,12.92,12.92,0,0,0-1.81-.19c-.68,0-1.22,0-1.62,0H111.66v41.23h7.79v-14h8.69l6.77,14h8.82L136.26,93.2A10.11,10.11,0,0,0,140.58,89.79ZM119.45,74.57h9.28c.4,0,.84,0,1.31.06a5.86,5.86,0,0,1,1.32.23,4.61,4.61,0,0,1,2.43,1.44A5.67,5.67,0,0,1,135,78.56a8.64,8.64,0,0,1,0,4.73,5.67,5.67,0,0,1-1.19,2.26A4.69,4.69,0,0,1,131.36,87a6.49,6.49,0,0,1-1.32.22c-.47,0-.91.06-1.31.06h-9.28Z"/><path class="cls-2" d="M185.23,76.66a17.84,17.84,0,0,0-6.9-7.53,22.49,22.49,0,0,0-21.33,0,17.84,17.84,0,0,0-6.9,7.53,24.91,24.91,0,0,0-2.42,11.25,24.85,24.85,0,0,0,2.42,11.25,17.84,17.84,0,0,0,6.9,7.53,22.41,22.41,0,0,0,21.33,0,17.84,17.84,0,0,0,6.9-7.53,24.85,24.85,0,0,0,2.42-11.25A24.91,24.91,0,0,0,185.23,76.66ZM178.1,95.41a10.64,10.64,0,0,1-3.9,5,11.29,11.29,0,0,1-6.53,1.69,11.77,11.77,0,0,1-6.53-1.81,10.58,10.58,0,0,1-3.91-4.9,19.33,19.33,0,0,1-1.3-7.44,19.83,19.83,0,0,1,1.3-7.5,10.52,10.52,0,0,1,3.91-5,11.12,11.12,0,0,1,6.53-1.69,11.87,11.87,0,0,1,6.53,1.8,10.67,10.67,0,0,1,3.9,4.9,19.36,19.36,0,0,1,1.31,7.44A19.82,19.82,0,0,1,178.1,95.41Z"/><polygon class="cls-2" points="21.01 42.07 7.38 14.7 0.4 14.7 0.4 55.93 7.67 55.93 7.67 31.31 19.64 55.93 22.39 55.93 34.36 31.31 34.36 55.93 41.63 55.93 41.63 14.7 34.64 14.7 21.01 42.07"/><path class="cls-2" d="M59.38,14.7,46.78,55.93h8l2.61-8.59H72.93l2.65,8.59h8L71,14.7Zm.24,25.37L65.11,22l5.58,18.07Z"/><path class="cls-2" d="M117.67,37.19a15,15,0,0,0,2.58-8.86A16.85,16.85,0,0,0,119.13,22a11,11,0,0,0-3.47-4.68,12.79,12.79,0,0,0-6.06-2.43,13.24,13.24,0,0,0-1.82-.19c-.68,0-1.22,0-1.62,0H88.76V55.93h7.78V42h8.69l6.78,14h8.81l-7.47-15.32A10.09,10.09,0,0,0,117.67,37.19ZM96.54,22h9.28q.6,0,1.32.06a6.5,6.5,0,0,1,1.31.23,4.71,4.71,0,0,1,2.44,1.44A5.84,5.84,0,0,1,112.08,26a8.6,8.6,0,0,1,0,4.72A5.8,5.8,0,0,1,110.89,33a4.72,4.72,0,0,1-2.44,1.45,7.28,7.28,0,0,1-1.31.23c-.48,0-.92,0-1.32,0H96.54Z"/><polygon class="cls-2" points="160.11 14.7 150.6 14.7 134.91 33.71 134.91 14.7 127.12 14.7 127.12 55.93 134.91 55.93 134.91 37.15 151.35 55.93 161.19 55.93 142.87 35.03 160.11 14.7"/><path class="cls-2" d="M190.86,40.41a9.67,9.67,0,0,1-.68,3.67,8.37,8.37,0,0,1-4.69,4.72,9.57,9.57,0,0,1-7,0A8.24,8.24,0,0,1,175.7,47a8.64,8.64,0,0,1-1.91-2.87,9.48,9.48,0,0,1-.68-3.69V14.7l-7.91.06V40.47a17,17,0,0,0,2.12,8.62,14.67,14.67,0,0,0,5.9,5.68,20,20,0,0,0,17.52,0,14.67,14.67,0,0,0,5.9-5.68,17,17,0,0,0,2.12-8.62V14.7h-7.9Z"/><polygon class="cls-2" points="234.55 4.9 231.8 0 224.24 3.89 216.68 0 213.93 4.9 224.24 10.28 234.55 4.9"/><path class="cls-2" d="M217.93,22.92a11.47,11.47,0,0,1,6.54-1.75,11.19,11.19,0,0,1,7,2.08,11.1,11.1,0,0,1,3.87,5.82l7.84-2.17a18.67,18.67,0,0,0-6.79-9.54,19.7,19.7,0,0,0-11.93-3.52,20.4,20.4,0,0,0-10.67,2.69,18.09,18.09,0,0,0-6.9,7.53,24.92,24.92,0,0,0-2.41,11.26,24.91,24.91,0,0,0,2.41,11.25,18.09,18.09,0,0,0,6.9,7.53,20.4,20.4,0,0,0,10.67,2.69,19.7,19.7,0,0,0,11.93-3.52,18.67,18.67,0,0,0,6.79-9.54l-7.84-2.17a10.52,10.52,0,0,1-10.88,7.9,11.47,11.47,0,0,1-6.54-1.75A10.59,10.59,0,0,1,214,42.79a19.4,19.4,0,0,1-1.32-7.47A19.41,19.41,0,0,1,214,27.84,10.59,10.59,0,0,1,217.93,22.92Z"/><rect class="cls-2" x="250.07" y="14.7" width="7.79" height="41.23"/><path class="cls-2" d="M292.1,14.7V40.41a9.67,9.67,0,0,1-.68,3.67,8.37,8.37,0,0,1-4.69,4.72,9.57,9.57,0,0,1-7,0A8.24,8.24,0,0,1,276.94,47,8.64,8.64,0,0,1,275,44.1a9.66,9.66,0,0,1-.68-3.69V14.7l-7.91.06V40.47a17,17,0,0,0,2.12,8.62,14.67,14.67,0,0,0,5.9,5.68,17.82,17.82,0,0,0,7.7,2c-.08.14-.19.26-.27.4a8.66,8.66,0,0,0-1.19,4.24,6.57,6.57,0,0,0,3,5.56,6,6,0,0,0,3.32.91,6.76,6.76,0,0,0,3.16-.79,7.22,7.22,0,0,0,2.57-2.19l-2.7-3.55a4.29,4.29,0,0,1-1,.65,2.47,2.47,0,0,1-.93.21,1.48,1.48,0,0,1-1.06-.41,1.36,1.36,0,0,1-.43-1,3.85,3.85,0,0,1,.84-2.09,12.93,12.93,0,0,1,2.28-2.41,17,17,0,0,1,2.89-1.9,14.64,14.64,0,0,0,5.21-5.25A17,17,0,0,0,300,40.47V14.7Z"/><path class="cls-2" d="M152,144.44V122.8h3.66l7.16,14.37L170,122.8h3.67v21.64h-3.82V131.51l-6.28,12.93h-1.44l-6.29-12.93v12.93Z"/><path class="cls-2" d="M186.62,144.89a9.55,9.55,0,0,1-4.6-1.06,7.61,7.61,0,0,1-3.1-3,8.88,8.88,0,0,1-1.11-4.52v-13.5l4.15,0v13.49a5,5,0,0,0,.36,1.94,4.48,4.48,0,0,0,1,1.51,4.42,4.42,0,0,0,1.49,1,5.14,5.14,0,0,0,3.65,0,4.5,4.5,0,0,0,1.48-1,4.39,4.39,0,0,0,1-1.5,5,5,0,0,0,.36-1.93V122.8h4.14v13.53a8.88,8.88,0,0,1-1.11,4.52,7.64,7.64,0,0,1-3.09,3A9.61,9.61,0,0,1,186.62,144.89Z"/><path class="cls-2" d="M199,144.44v-.51l10.28-17.32H199.9V122.8h16.54v.51l-10.22,17.28h9.92v3.85Z"/><path class="cls-2" d="M220.31,144.44V122.8h4.09v21.64Z"/><path class="cls-2" d="M228.88,144.44V122.8H243v3.81H233v4.63h8.24v3.82H233v5.56h10v3.82Z"/><path class="cls-2" d="M251.13,144.89a6.65,6.65,0,0,1-4.26-1.32,7.1,7.1,0,0,1-2.39-3.58l4-1a2.35,2.35,0,0,0,.87,1.44,2.45,2.45,0,0,0,1.57.6,2.79,2.79,0,0,0,1.22-.31,1.86,1.86,0,0,0,.94-1,3.22,3.22,0,0,0,.21-1.07c0-.42,0-.9,0-1.45V122.8h4.15v14.43c0,.69,0,1.29,0,1.8a6.63,6.63,0,0,1-.15,1.44,4.66,4.66,0,0,1-.56,1.39,5.58,5.58,0,0,1-2.39,2.31A7.32,7.32,0,0,1,251.13,144.89Z"/><path class="cls-2" d="M270.79,144.89a9.55,9.55,0,0,1-4.6-1.06,7.61,7.61,0,0,1-3.1-3,8.88,8.88,0,0,1-1.11-4.52v-13.5l4.15,0v13.49a5,5,0,0,0,.36,1.94,4.48,4.48,0,0,0,1,1.51,4.42,4.42,0,0,0,1.49,1,4.93,4.93,0,0,0,1.81.33,4.86,4.86,0,0,0,1.84-.34,4.41,4.41,0,0,0,2.46-2.48,5,5,0,0,0,.36-1.93V122.8h4.15v13.53a8.89,8.89,0,0,1-1.12,4.52,7.64,7.64,0,0,1-3.09,3A9.61,9.61,0,0,1,270.79,144.89Z"/><path class="cls-2" d="M291.05,144.89a10.6,10.6,0,0,1-4.34-.85,7.82,7.82,0,0,1-4.74-6.21l4.27-.63a4.76,4.76,0,0,0,1.86,2.87,5.42,5.42,0,0,0,3.22,1,6.12,6.12,0,0,0,1.95-.31,3.91,3.91,0,0,0,1.56-.93,2.11,2.11,0,0,0,.61-1.52,2.31,2.31,0,0,0-.1-.64,1.75,1.75,0,0,0-.32-.58,2.66,2.66,0,0,0-.64-.51,5.27,5.27,0,0,0-1.05-.44l-5.62-1.65a15.39,15.39,0,0,1-1.46-.51,6.42,6.42,0,0,1-1.62-.95,4.86,4.86,0,0,1-1.3-1.63,5.53,5.53,0,0,1-.52-2.56,5.82,5.82,0,0,1,1.1-3.62,6.48,6.48,0,0,1,2.93-2.15,11,11,0,0,1,4.06-.69,10.72,10.72,0,0,1,4,.76,7.72,7.72,0,0,1,2.94,2.14,8.78,8.78,0,0,1,1.72,3.44l-4.42.75a3.91,3.91,0,0,0-.89-1.77,4.31,4.31,0,0,0-1.54-1.1,5.23,5.23,0,0,0-1.87-.41,4.91,4.91,0,0,0-1.81.27,3.41,3.41,0,0,0-1.39.85,1.86,1.86,0,0,0-.53,1.32,1.54,1.54,0,0,0,.44,1.15,3.27,3.27,0,0,0,1.09.71,10.83,10.83,0,0,0,1.36.45l3.75,1c.56.15,1.19.34,1.87.59a8.15,8.15,0,0,1,2,1,5.37,5.37,0,0,1,1.55,1.72,5.49,5.49,0,0,1,.61,2.71,6.16,6.16,0,0,1-.73,3,6.25,6.25,0,0,1-2,2.15,8.93,8.93,0,0,1-2.78,1.27A12.29,12.29,0,0,1,291.05,144.89Z"/></g></g></svg>